<?xml version="1.0" encoding="utf-8"?>
<!-- Generator: Adobe Illustrator 27.1.1, SVG Export Plug-In . SVG Version: 6.00 Build 0)  -->
<svg version="1.1" id="Layer_1" xmlns="http://www.w3.org/2000/svg" xmlns:xlink="http://www.w3.org/1999/xlink" x="0px" y="0px"
	 viewBox="0 0 1007.12 307.44" style="enable-background:new 0 0 1007.12 307.44;" xml:space="preserve">
<style type="text/css">
	.st0{fill:#FFFFFF;}
</style>
<g>
	<path class="st0" d="M155.94,207.31c-2.98,0-5.35-0.87-7.06-2.58c-1.4-1.4-3.19-3.79-5.47-7.31l-15.65-25.71l-7.74,7.32v14.4
		c0,4.33-1.21,7.75-3.58,10.19c-2.39,2.45-5.22,3.69-8.39,3.69c-3.65,0-6.59-1.27-8.74-3.77c-2.05-2.4-3.1-5.85-3.1-10.26v-82.46
		c0-4.77,0.98-8.53,2.92-11.16c2.1-2.84,5.09-4.29,8.91-4.29c3.65,0,6.61,1.29,8.8,3.83c2.1,2.45,3.17,5.97,3.17,10.48v41.23
		l17.84-18.71c2.81-2.96,4.92-4.94,6.46-6.07c1.81-1.33,4-2,6.51-2c3,0,5.55,0.99,7.59,2.93c2.06,1.98,3.11,4.47,3.11,7.41
		c0,3.59-2.74,7.73-8.61,13.02l-8.86,8.12l18.82,29.57c1.52,2.4,2.58,4.18,3.24,5.44c0.81,1.53,1.22,3.04,1.22,4.5
		c0,3.65-1.05,6.62-3.14,8.82C162.1,206.18,159.31,207.31,155.94,207.31z"/>
	<path class="st0" d="M234.74,207.31c-3.3,0-6.07-1.22-8.24-3.62c-1.51-1.67-2.48-3.8-2.91-6.34c-1.27,1.28-2.57,2.43-3.89,3.46
		c-2.75,2.14-5.8,3.75-9.06,4.8c-3.23,1.04-6.95,1.56-11.03,1.56c-5.02,0-9.61-1.06-13.62-3.16c-4.07-2.12-7.27-5.1-9.51-8.85
		c-2.65-4.52-3.93-10.69-3.93-18.87v-38.33c0-4.44,1.08-7.87,3.21-10.21c2.19-2.39,5.08-3.61,8.62-3.61c3.57,0,6.51,1.22,8.75,3.63
		c2.19,2.36,3.3,5.79,3.3,10.18v30.96c0,4.28,0.36,7.9,1.07,10.75c0.65,2.61,1.75,4.57,3.37,6c1.55,1.36,3.66,2.02,6.47,2.02
		c2.83,0,5.42-0.82,7.94-2.52c2.53-1.7,4.33-3.86,5.48-6.58c0.65-1.64,1.45-5.99,1.45-17.11v-23.52c0-4.4,1.11-7.82,3.3-10.18
		c2.23-2.41,5.15-3.63,8.68-3.63c3.53,0,6.43,1.21,8.62,3.61c2.13,2.34,3.21,5.77,3.21,10.21v56.04c0,4.25-1.04,7.55-3.11,9.82
		C240.79,206.13,238.04,207.31,234.74,207.31z"/>
	<path class="st0" d="M266.65,236c-4.52,0-7.62-1.51-9.22-4.49c-1.37-2.55-2.04-6.04-2.04-10.67v-83.46c0-4.24,1-7.52,2.98-9.75
		c2.05-2.32,4.84-3.49,8.29-3.49c3.38,0,6.2,1.19,8.36,3.53c1.51,1.64,2.49,3.75,2.93,6.3c2.67-2.66,5.44-4.75,8.26-6.27
		c4.23-2.27,9.08-3.42,14.39-3.42c6.35,0,12.28,1.66,17.62,4.94c5.36,3.29,9.63,8.13,12.72,14.39c3.05,6.19,4.59,13.58,4.59,21.97
		c0,6.17-0.89,11.93-2.63,17.12c-1.76,5.24-4.23,9.72-7.34,13.3c-3.13,3.61-6.88,6.43-11.15,8.37c-4.27,1.95-8.91,2.93-13.8,2.93
		c-5.91,0-10.98-1.23-15.08-3.65c-2.51-1.48-4.95-3.41-7.31-5.76v23.08C278.2,233.4,271.92,236,266.65,236z M295.84,143.13
		c-4.69,0-8.55,1.81-11.79,5.53c-3.27,3.76-4.93,9.5-4.93,17.07c0,7.11,1.65,12.66,4.91,16.49c3.21,3.78,7.07,5.61,11.8,5.61
		c2.77,0,5.27-0.79,7.65-2.4c2.37-1.62,4.32-4.12,5.79-7.44c1.52-3.42,2.29-7.67,2.29-12.61c0-4.77-0.73-8.89-2.16-12.25
		c-1.38-3.25-3.31-5.76-5.71-7.47C301.31,143.95,298.74,143.13,295.84,143.13z"/>
	<path class="st0" d="M353.39,207.31c-3.5,0-6.4-1.29-8.62-3.82c-2.13-2.45-3.22-5.88-3.22-10.2v-55.33c0-4.39,1.09-7.81,3.25-10.17
		c2.21-2.42,5.1-3.64,8.58-3.64c3.46,0,6.38,1.21,8.66,3.61c2.25,2.36,3.39,5.61,3.39,9.64v55.9c0,4.45-1.13,7.92-3.37,10.33
		C359.79,206.07,356.87,207.31,353.39,207.31z M353.6,119.68c-3.24,0-6.06-1.02-8.39-3.03c-2.42-2.09-3.65-5.03-3.65-8.73
		c0-3.4,1.24-6.24,3.69-8.45c2.38-2.15,5.19-3.24,8.36-3.24c3.03,0,5.76,0.99,8.11,2.93c2.47,2.05,3.73,5,3.73,8.76
		c0,3.64-1.21,6.56-3.6,8.67C359.53,118.64,356.76,119.68,353.6,119.68z"/>
	<path class="st0" d="M421,207.31c-3.16,0-6.19-0.38-8.99-1.14c-2.83-0.76-5.28-1.79-7.31-3.07c-1.97-1.23-3.67-2.53-5.06-3.85
		c-0.49-0.46-1.03-1-1.62-1.62c-0.46,2.51-1.44,4.58-2.92,6.16c-2.19,2.33-4.98,3.52-8.31,3.52c-3.41,0-6.19-1.2-8.26-3.57
		c-1.99-2.28-3-5.56-3-9.75v-84.45c0-4.42,0.96-7.89,2.86-10.29c2.03-2.57,4.85-3.87,8.4-3.87c3.66,0,6.56,1.24,8.61,3.68
		c1.95,2.33,2.94,5.57,2.94,9.64v24.27c2.56-2.2,5.17-4.01,7.79-5.41c4.09-2.17,9.17-3.28,15.09-3.28c6.83,0,12.92,1.65,18.1,4.92
		c5.2,3.27,9.27,8.05,12.12,14.22c2.79,6.06,4.21,13.3,4.21,21.53c0,6.05-0.78,11.7-2.33,16.78c-1.56,5.14-3.88,9.67-6.87,13.46
		c-3.03,3.84-6.77,6.86-11.1,8.96C431.02,206.25,426.19,207.31,421,207.31z M416.11,143.13c-3.24,0-6.04,0.85-8.55,2.6
		c-2.52,1.75-4.54,4.37-6.02,7.76c-1.52,3.5-2.29,7.76-2.29,12.66c0,7.11,1.59,12.58,4.74,16.28c3.09,3.63,7.06,5.4,12.12,5.4
		c4.19,0,7.74-1.81,10.83-5.52c3.15-3.79,4.75-9.42,4.75-16.72c0-4.79-0.69-8.94-2.04-12.34c-1.3-3.27-3.14-5.81-5.48-7.55
		C421.87,143.97,419.23,143.13,416.11,143.13z"/>
	<path class="st0" d="M473.52,207.31c-3.5,0-6.4-1.29-8.62-3.82c-2.13-2.45-3.22-5.88-3.22-10.2v-55.33c0-4.39,1.09-7.81,3.25-10.17
		c2.21-2.42,5.1-3.64,8.58-3.64c3.47,0,6.38,1.21,8.66,3.61c2.25,2.36,3.39,5.61,3.39,9.64v55.9c0,4.45-1.13,7.92-3.37,10.33
		C479.92,206.07,477,207.31,473.52,207.31z M473.74,119.68c-3.24,0-6.06-1.02-8.39-3.03c-2.42-2.09-3.65-5.03-3.65-8.73
		c0-3.4,1.24-6.24,3.69-8.45c2.38-2.15,5.19-3.24,8.36-3.24c3.03,0,5.76,0.99,8.11,2.93c2.47,2.05,3.73,5,3.73,8.76
		c0,3.64-1.21,6.56-3.6,8.67C479.66,118.64,476.89,119.68,473.74,119.68z"/>
	<path class="st0" d="M507.91,207.31c-3.5,0-6.4-1.29-8.62-3.82c-2.13-2.45-3.22-5.88-3.22-10.2V109.4c0-4.42,1.06-7.87,3.14-10.27
		c2.16-2.49,5.09-3.76,8.69-3.76c3.58,0,6.52,1.24,8.76,3.68c2.18,2.38,3.29,5.87,3.29,10.35v83.88c0,4.49-1.12,7.98-3.33,10.36
		C514.36,206.08,511.43,207.31,507.91,207.31z"/>
	<path class="st0" d="M568.44,207.31c-13,0-23.29-3.81-30.6-11.31c-7.29-7.49-10.99-17.72-10.99-30.42c0-5.94,0.9-11.54,2.68-16.65
		c1.8-5.16,4.46-9.66,7.92-13.38c3.48-3.73,7.81-6.62,12.88-8.61c5.01-1.96,10.63-2.95,16.7-2.95c7.93,0,14.86,1.71,20.6,5.1
		c5.75,3.39,10.12,7.85,13,13.25c2.86,5.36,4.3,10.92,4.3,16.51c0,5.76-1.82,9.62-5.41,11.47c-3.14,1.62-7.33,2.41-12.8,2.41h-35.45
		c0.27,3.09,1.04,5.88,2.29,8.31c1.52,2.95,3.54,5.2,6.01,6.67c2.52,1.5,5.24,2.23,8.3,2.23c2.09,0,4.02-0.25,5.72-0.73
		c1.69-0.48,3.35-1.24,4.95-2.27c1.7-1.09,3.28-2.28,4.69-3.52c1.48-1.29,3.44-3.09,5.82-5.33c0.03-0.02,0.05-0.05,0.08-0.07
		c1.41-1.21,3.34-1.82,5.73-1.82c2.54,0,4.67,0.74,6.32,2.2c1.73,1.53,2.61,3.65,2.61,6.3c0,2.18-0.77,4.56-2.37,7.27
		c-1.51,2.58-3.79,5.06-6.76,7.37c-2.95,2.29-6.67,4.21-11.08,5.71C579.19,206.56,574.09,207.31,568.44,207.31z M581.44,157.22
		c-0.65-4.84-2.16-8.54-4.49-11.02c-2.67-2.83-6.13-4.21-10.57-4.21c-4.2,0-7.54,1.4-10.2,4.27c-2.34,2.52-3.92,6.2-4.71,10.96
		H581.44z"/>
	<path class="st0" d="M638.53,207.31c-6.55,0-11.46-1.12-14.98-3.41c-3.58-2.33-5.97-5.61-7.08-9.74c-1.02-3.76-1.53-8.8-1.53-14.97
		v-34.85h-0.28c-3.35,0-6.01-0.86-7.9-2.57c-1.95-1.76-2.94-4.02-2.94-6.71c0-2.68,1.07-5.01,3.1-6.73
		c1.92-1.63,4.62-2.46,8.02-2.48v-9.35c0-3.23,0.08-5.69,0.26-7.54c0.2-2.1,0.76-3.96,1.69-5.52c0.93-1.63,2.31-3,4.07-4.02
		c1.76-1.03,3.74-1.55,5.89-1.55c3.04,0,5.79,1.13,8.2,3.37c1.67,1.55,2.75,3.48,3.2,5.72c0.39,1.94,0.57,4.55,0.57,7.99v10.91h4.82
		c3.3,0,5.92,0.85,7.79,2.53c1.93,1.74,2.91,3.99,2.91,6.68c0,4.37-2.35,6.48-4.33,7.48c-2.4,1.21-5.62,1.8-9.84,1.8h-1.35v33.3
		c0,2.9,0.1,5.15,0.3,6.69c0.15,1.17,0.52,2.07,1.13,2.74c0.58,0.64,1.86,0.78,2.82,0.78c0.97,0,2.37-0.19,4.14-0.55
		c2.11-0.44,3.74-0.65,4.99-0.65c2.17,0,4.13,0.85,5.82,2.54c1.69,1.69,2.54,3.79,2.54,6.25c0,2.78-1.11,6.63-6.38,9.2
		C650.44,206.43,645.31,207.31,638.53,207.31z"/>
	<path class="st0" d="M678.01,207.31c-3.5,0-6.4-1.29-8.62-3.82c-2.13-2.45-3.22-5.88-3.22-10.2v-55.33c0-4.39,1.09-7.81,3.25-10.17
		c2.21-2.42,5.1-3.64,8.58-3.64c3.47,0,6.38,1.21,8.66,3.61c2.25,2.36,3.39,5.61,3.39,9.64v55.9c0,4.45-1.13,7.92-3.37,10.33
		C684.41,206.07,681.49,207.31,678.01,207.31z M678.23,119.68c-3.24,0-6.06-1.02-8.39-3.03c-2.42-2.1-3.65-5.03-3.65-8.73
		c0-3.4,1.24-6.24,3.69-8.45c2.38-2.15,5.19-3.24,8.36-3.24c3.03,0,5.76,0.99,8.11,2.93c2.47,2.05,3.73,5,3.73,8.76
		c0,3.64-1.21,6.56-3.6,8.67C684.15,118.64,681.38,119.68,678.23,119.68z"/>
	<path class="st0" d="M715.66,205.04c-2.93,0-5.45-0.95-7.58-2.83c-2.12-1.89-3.19-4.53-3.19-7.93c0-2.88,1.02-5.36,3.05-7.44
		c2.03-2.08,4.53-3.12,7.51-3.12c2.98,0,5.51,1.03,7.62,3.08c2.1,2.05,3.15,4.55,3.15,7.47c0,3.35-1.05,5.99-3.15,7.9
		C720.96,204.09,718.49,205.04,715.66,205.04z"/>
	<path class="st0" d="M786.1,207.31c-3.16,0-6.19-0.38-8.99-1.14c-2.83-0.76-5.29-1.8-7.31-3.07c-1.97-1.23-3.67-2.53-5.06-3.85
		c-0.49-0.46-1.03-1-1.62-1.62c-0.46,2.51-1.44,4.58-2.92,6.16c-2.19,2.33-4.98,3.52-8.31,3.52c-3.41,0-6.19-1.2-8.26-3.57
		c-1.99-2.28-3-5.56-3-9.75v-84.45c0-4.42,0.96-7.89,2.86-10.29c2.03-2.57,4.85-3.87,8.41-3.87c3.66,0,6.56,1.24,8.61,3.68
		c1.95,2.32,2.94,5.57,2.94,9.64v24.27c2.56-2.2,5.17-4.01,7.79-5.41c4.09-2.17,9.17-3.28,15.09-3.28c6.83,0,12.92,1.65,18.1,4.92
		c5.2,3.27,9.27,8.05,12.12,14.22c2.79,6.06,4.21,13.31,4.21,21.53c0,6.05-0.78,11.7-2.33,16.78c-1.57,5.14-3.88,9.67-6.87,13.46
		c-3.03,3.84-6.77,6.86-11.1,8.96C796.12,206.25,791.29,207.31,786.1,207.31z M781.22,143.13c-3.24,0-6.04,0.85-8.55,2.6
		c-2.52,1.75-4.54,4.36-6.02,7.76c-1.52,3.5-2.29,7.76-2.29,12.66c0,7.11,1.59,12.59,4.74,16.28c3.09,3.63,7.06,5.4,12.12,5.4
		c4.2,0,7.74-1.81,10.83-5.52c3.15-3.79,4.75-9.42,4.75-16.72c0-4.79-0.68-8.94-2.04-12.34c-1.3-3.27-3.14-5.81-5.48-7.56
		C786.97,143.97,784.33,143.13,781.22,143.13z"/>
	<path class="st0" d="M864.44,236c-6.88,0-13.15-0.99-18.61-2.93c-5.55-1.98-9.92-4.6-12.99-7.79c-3.24-3.38-4.88-6.97-4.88-10.67
		c0-3.01,1.05-5.51,3.14-7.44c2.03-1.88,4.5-2.84,7.35-2.84c3.52,0,6.6,1.53,9.17,4.55c1.06,1.3,2.12,2.57,3.22,3.86
		c0.97,1.14,2.06,2.12,3.24,2.93c1.11,0.76,2.48,1.34,4.1,1.72c1.71,0.41,3.73,0.61,5.99,0.61c4.62,0,8.2-0.62,10.63-1.85
		c2.3-1.16,3.86-2.71,4.76-4.74c1-2.25,1.59-4.7,1.76-7.27c0.12-1.75,0.21-4.2,0.29-7.31c-2.1,2.08-4.38,3.8-6.81,5.16
		c-4.22,2.35-9.27,3.55-15.02,3.55c-6.91,0-13.05-1.8-18.25-5.36c-5.17-3.53-9.2-8.53-11.96-14.85c-2.71-6.21-4.09-13.45-4.09-21.52
		c0-6.03,0.84-11.57,2.49-16.46c1.68-4.95,4.11-9.2,7.24-12.63c3.14-3.44,6.81-6.07,10.92-7.82c4.09-1.74,8.63-2.62,13.5-2.62
		c5.82,0,10.97,1.15,15.29,3.41c2.84,1.49,5.56,3.54,8.12,6.12c0.42-2.48,1.36-4.54,2.81-6.16c2.09-2.33,4.81-3.52,8.06-3.52
		c5.78,0,8.33,2.66,9.46,4.89c1.4,2.78,2.09,6.56,2.09,11.54v56.18c0,6.61-0.72,12.4-2.15,17.22c-1.47,4.97-3.88,9.16-7.16,12.44
		c-3.28,3.28-7.59,5.73-12.82,7.3C878.25,235.23,871.9,236,864.44,236z M865.43,143.13c-4.84,0-8.6,1.78-11.51,5.45
		c-2.99,3.77-4.5,9.33-4.5,16.51c0,7.25,1.55,12.74,4.59,16.31c3,3.52,6.78,5.23,11.56,5.23c2.82,0,5.41-0.74,7.93-2.26
		c2.48-1.5,4.54-3.82,6.14-6.89c1.62-3.13,2.44-7.03,2.44-11.6c0-7.33-1.59-13.05-4.72-17.01
		C874.32,145,870.41,143.13,865.43,143.13z"/>
</g>
</svg>
