<svg xmlns="http://www.w3.org/2000/svg" viewBox="226 -210 429 956" fill="none">
  <path id="pit-lane" d="M617.71 233.11 L621.39 159.21 L625.58 54.51 L629.13 -11.53 L633.97 -107.99 L635.28 -135.86 L635.58 -148.06 L635.39 -154.19 L635.09 -157.28 L634.59 -160.33 L633.43 -164.75 L631.72 -168.98 L629.44 -173.01 L627.68 -175.49 L625.76 -177.86 L623.72 -180.08 L621.49 -182.18 L617.83 -185.02 L613.91 -187.36 L609.69 -189.17 L605.29 -190.31 L600.70 -190.71 L596.13 -190.33 L593.13 -189.71 L590.22 -188.84 L585.95 -187.11 L583.20 -185.71 L580.52 -184.14 L578.00 -182.43 L575.58 -180.55 L572.24 -177.40 L569.25 -173.85 L566.75 -170.02 L564.67 -165.91 L562.50 -160.20 L560.96 -154.28 L560.04 -148.25 L559.70 -142.04 L559.92 -135.90 L560.69 -129.90 L562.08 -123.82 L564.01 -117.97 L567.00 -110.90 L569.72 -105.36 L577.05 -91.84 L579.59 -86.23 L581.19 -81.96 L582.89 -76.13 L584.39 -68.63 L585.03 -62.56 L585.10 -56.42 L584.61 -50.26 L583.80 -44.14 L579.03 -16.89 L577.06 -3.05 L575.01 15.54 L570.58 52.46 L569.29 66.36 L568.11 83.05 L567.28 98.72 L566.66 114.25 L566.38 124.98 L566.43 134.13 L566.74 140.21 L567.32 146.38 L570.02 166.11 L571.00 175.20 L571.48 184.42 L571.39 195.12 L570.54 208.84 L568.46 231.71 L567.33 246.93 L564.32 297.43 L559.27 374.01 L554.57 453.64 L553.17 473.56 L552.30 482.76 L551.67 487.24 L550.32 493.23 L548.85 497.56 L546.86 501.69 L544.32 505.47 L541.24 508.82 L537.64 511.69 L533.68 513.94 L529.41 515.63 L526.51 516.47 L523.52 517.10 L518.93 517.60 L514.38 517.53 L509.85 516.82 L505.43 515.48 L502.65 514.29 L499.93 512.89 L496.16 510.39 L492.71 507.31 L489.85 503.78 L487.54 499.76 L486.39 496.94 L485.19 492.51 L484.20 486.52 L483.59 480.44 L481.66 446.66 L479.00 408.10 L476.82 367.86 L476.11 346.09 L475.99 320.62 L476.25 305.37 L477.46 267.74 L478.43 228.30 L479.92 184.45 L485.14 45.00 L489.31 -48.37 L490.45 -82.16 L490.58 -94.48 L490.43 -99.05 L490.16 -102.13 L489.70 -105.15 L489.04 -108.11 L488.12 -111.03 L486.93 -113.87 L484.69 -117.81 L481.92 -121.43 L480.84 -122.52 L478.48 -124.47 L475.89 -126.05 L473.07 -127.22 L471.58 -127.62 L468.56 -128.03 L465.52 -127.89 L462.57 -127.18 L461.15 -126.59 L458.56 -125.02 L456.31 -122.94 L454.50 -120.53 L453.74 -119.19 L452.49 -116.41 L448.62 -104.86 L446.34 -99.14 L443.45 -93.69 L441.80 -91.11 L439.97 -88.64 L436.94 -85.25 L433.43 -82.17 L430.97 -80.40 L428.40 -78.76 L422.99 -75.80 L414.54 -71.97 L405.98 -68.62 L397.22 -65.77 L386.71 -63.03 L376.05 -60.82 L365.23 -58.94 L356.00 -57.62 L339.37 -55.63 L330.08 -54.23 L320.97 -52.53 L313.45 -50.82 L307.56 -49.04 L303.24 -47.31 L300.50 -45.95 L297.88 -44.44 L294.03 -41.75 L289.39 -37.71 L287.22 -35.52 L284.20 -32.06 L282.37 -29.66 L280.65 -27.12 L279.10 -24.43 L277.78 -21.66 L276.69 -18.84 L275.80 -15.88 L275.15 -12.92 L274.78 -9.82 L274.70 -6.76 L274.91 -3.75 L275.78 0.77 L276.74 3.66 L278.03 6.43 L279.62 9.02 L280.54 10.25 L282.59 12.53 L283.72 13.58 L284.90 14.54 L287.42 16.20 L290.18 17.55 L291.60 18.08 L294.56 18.87 L309.62 21.23" stroke="#F2EDE4" stroke-opacity="0.5" stroke-width="2" stroke-dasharray="6 6" stroke-linecap="round" />
</svg>
