<?xml version="1.0" encoding="UTF-8"?>
<svg xmlns="http://www.w3.org/2000/svg" viewBox="226 -210 429 956" preserveAspectRatio="xMidYMid meet">
  <path d="M586.54 234.81 L586.08 239.81 L585.73 244.63 L585.41 250.87 L584.80 264.89 L584.28 277.53 L583.94 287.23 L583.03 318.36 L582.77 324.98 L582.54 329.97 L580.71 362.58 L579.07 389.80 L577.64 417.43 L577.23 424.02 L576.42 435.11 L575.91 441.21 L575.45 446.14 L574.96 450.94 L574.42 455.59 L573.86 460.10 L573.20 464.91 L572.51 469.55 L571.79 474.15 L570.98 478.83 L570.42 481.84 L569.80 484.89 L568.78 489.46 L568.04 492.49 L567.23 495.52 L566.39 498.44 L565.43 501.46 L564.43 504.35 L563.87 505.84 L562.70 508.70 L561.40 511.56 L559.97 514.34 L558.42 517.00 L557.61 518.26 L556.72 519.55 L555.79 520.80 L554.83 522.00 L553.84 523.17 L552.80 524.29 L551.74 525.37 L550.65 526.41 L549.52 527.41 L548.31 528.41 L547.06 529.37 L545.78 530.27 L544.47 531.14 L543.13 531.95 L541.77 532.72 L540.38 533.44 L538.97 534.11 L537.54 534.73 L536.09 535.30 L534.62 535.82 L533.13 536.29 L531.63 536.71 L530.11 537.08 L528.58 537.40 L527.05 537.67 L525.51 537.88 L523.96 538.04 L522.42 538.15 L520.87 538.20 L519.32 538.20 L517.77 538.14 L516.21 538.03 L514.66 537.87 L513.11 537.65 L511.57 537.38 L510.03 537.06 L508.51 536.69 L507.01 536.26 L505.53 535.79 L504.06 535.27 L502.61 534.69 L501.17 534.05 L499.82 533.40 L498.48 532.70 L497.15 531.96 L495.83 531.16 L494.52 530.32 L493.23 529.43 L490.81 527.62 L489.63 526.65 L487.29 524.60 L486.15 523.51 L484.04 521.35 L482.01 519.04 L481.02 517.82 L479.11 515.29 L477.41 512.78 L476.59 511.47 L475.03 508.77 L474.29 507.37 L472.93 504.59 L472.31 503.21 L471.12 500.38 L470.56 498.93 L469.49 495.98 L468.49 492.95 L467.61 490.06 L466.44 485.63 L465.77 482.64 L465.47 481.13 L465.18 479.61 L464.68 476.54 L464.26 473.41 L463.92 470.25 L463.57 465.53 L463.44 462.50 L463.38 459.43 L463.38 456.34 L463.50 451.64 L463.72 446.88 L464.02 442.05 L471.45 340.22 L472.04 331.11 L472.59 321.87 L473.96 296.67 L474.85 278.93 L475.52 264.27 L476.45 241.73 L477.46 215.83 L478.00 203.45 L479.05 181.49 L481.51 133.21 L484.72 59.49 L487.30 5.54 L489.76 -49.88 L490.24 -63.84 L490.51 -74.82 L490.55 -79.49 L490.53 -84.14 L490.47 -87.29 L490.35 -90.33 L490.15 -93.42 L489.87 -96.54 L489.51 -99.57 L489.03 -102.57 L488.43 -105.59 L487.68 -108.58 L487.24 -110.07 L486.74 -111.54 L486.20 -112.98 L485.59 -114.38 L484.93 -115.73 L484.17 -117.06 L483.32 -118.33 L482.36 -119.52 L481.28 -120.62 L480.11 -121.59 L478.83 -122.45 L477.49 -123.14 L476.06 -123.68 L474.57 -124.05 L473.06 -124.22 L471.54 -124.21 L470.02 -124.01 L468.54 -123.65 L467.11 -123.16 L465.73 -122.54 L464.41 -121.82 L463.13 -120.99 L461.91 -120.07 L460.75 -119.07 L459.65 -118.02 L458.59 -116.92 L457.57 -115.79 L456.60 -114.63 L454.73 -112.21 L453.84 -110.97 L453.00 -109.69 L451.44 -107.07 L449.14 -103.08 L448.33 -101.75 L446.67 -99.17 L444.92 -96.63 L443.10 -94.13 L441.24 -91.74 L439.24 -89.36 L437.21 -87.13 L435.05 -84.92 L432.81 -82.82 L430.52 -80.81 L428.12 -78.84 L425.61 -76.91 L423.13 -75.16 L420.54 -73.49 L419.19 -72.69 L416.42 -71.16 L415.00 -70.44 L412.26 -69.13 L409.43 -67.91 L406.52 -66.77 L405.04 -66.23 L400.55 -64.76 L396.04 -63.43 L390.14 -61.84 L387.12 -61.09 L384.05 -60.38 L380.94 -59.74 L377.77 -59.16 L374.79 -58.69 L370.25 -58.13 L367.17 -57.83 L364.06 -57.59 L360.91 -57.40 L351.30 -56.91 L345.26 -56.49 L342.21 -56.22 L339.14 -55.89 L336.06 -55.51 L332.99 -55.06 L328.39 -54.27 L325.28 -53.65 L322.25 -52.98 L319.31 -52.26 L316.25 -51.41 L313.29 -50.50 L310.34 -49.48 L307.39 -48.36 L304.57 -47.18 L303.11 -46.52 L300.31 -45.15 L297.64 -43.72 L294.97 -42.13 L292.38 -40.43 L291.12 -39.53 L288.67 -37.65 L286.36 -35.66 L285.24 -34.60 L284.17 -33.52 L283.11 -32.38 L282.12 -31.23 L281.15 -30.02 L280.25 -28.80 L279.39 -27.51 L278.60 -26.21 L277.86 -24.83 L277.20 -23.43 L276.62 -22.01 L276.13 -20.57 L275.72 -19.11 L275.38 -17.59 L275.13 -16.06 L274.97 -14.53 L274.89 -13.01 L274.91 -11.50 L275.01 -10.00 L275.21 -8.47 L275.50 -6.95 L275.88 -5.47 L276.35 -4.01 L276.90 -2.58 L277.54 -1.17 L278.26 0.21 L279.03 1.51 L279.87 2.78 L280.78 4.02 L281.76 5.23 L282.77 6.35 L283.83 7.43 L284.96 8.48 L286.15 9.48 L287.34 10.40 L288.59 11.29 L289.88 12.15 L291.17 12.94 L292.51 13.70 L293.89 14.43 L296.66 15.74 L298.11 16.36 L300.97 17.45 L303.90 18.39 L306.87 19.19 L308.40 19.53 L311.37 20.10 L314.44 20.51 L316.01 20.67 L319.02 20.86 L322.10 20.91 L323.66 20.88 L326.83 20.72 L328.34 20.60 L331.39 20.28 L332.94 20.08 L336.05 19.61 L343.64 18.25 L346.72 17.74 L349.86 17.31 L351.43 17.13 L354.58 16.85 L357.73 16.70 L359.30 16.67 L362.43 16.70 L363.98 16.77 L367.10 16.99 L370.22 17.34 L371.78 17.56 L373.35 17.81 L376.48 18.41 L379.51 19.09 L382.43 19.86 L385.32 20.71 L386.76 21.18 L389.61 22.18 L392.44 23.27 L395.24 24.46 L398.01 25.76 L400.75 27.17 L402.10 27.92 L403.44 28.70 L406.07 30.33 L407.37 31.18 L409.90 32.97 L412.37 34.86 L414.76 36.85 L417.07 38.93 L418.19 40.01 L419.29 41.10 L421.41 43.37 L423.46 45.73 L424.44 46.94 L425.41 48.18 L427.29 50.71 L429.10 53.34 L430.82 56.04 L431.65 57.42 L433.17 60.13 L434.56 62.81 L435.85 65.53 L436.47 66.92 L437.64 69.73 L438.73 72.59 L439.74 75.51 L440.67 78.47 L441.51 81.47 L442.25 84.52 L442.59 86.05 L442.91 87.60 L443.47 90.71 L443.94 93.85 L444.32 97.03 L444.61 100.23 L444.82 103.46 L444.93 106.47 L444.98 109.51 L444.91 114.09 L444.71 118.72 L443.09 142.58 L442.61 150.56 L442.20 158.11 L441.05 181.36 L440.54 194.11 L439.81 217.94 L439.06 245.67 L438.40 267.89 L438.16 282.43 L437.86 318.52 L437.70 329.22 L437.52 336.79 L437.28 344.41 L436.96 352.01 L436.64 358.55 L436.34 363.30 L436.11 366.38 L435.53 372.54 L435.15 375.75 L434.73 378.88 L434.26 381.94 L433.75 384.93 L433.16 388.11 L432.53 391.20 L431.86 394.21 L431.14 397.15 L430.32 400.26 L429.42 403.29 L428.45 406.25 L427.94 407.71 L426.83 410.60 L426.25 412.02 L425.00 414.81 L423.66 417.54 L422.95 418.88 L421.46 421.50 L419.76 424.24 L418.88 425.58 L417.04 428.21 L415.11 430.76 L414.11 432.01 L412.05 434.45 L409.90 436.81 L407.69 439.09 L406.55 440.21 L404.22 442.36 L403.03 443.40 L400.60 445.42 L399.36 446.39 L396.83 448.27 L394.25 450.07 L392.94 450.93 L390.26 452.59 L387.52 454.16 L386.12 454.91 L383.27 456.35 L378.99 458.33 L374.79 460.09 L371.92 461.20 L369.01 462.25 L366.05 463.23 L363.03 464.14 L358.43 465.40 L355.31 466.18 L350.68 467.25 L346.23 468.18 L343.22 468.75 L340.18 469.27 L337.11 469.74 L326.16 471.23 L321.40 471.93 L316.62 472.72 L310.47 473.90 L304.38 475.26 L298.38 476.78 L295.29 477.64 L292.30 478.52 L286.43 480.39 L283.54 481.38 L280.57 482.47 L277.71 483.60 L276.33 484.19 L273.49 485.49 L272.12 486.17 L269.45 487.60 L266.75 489.24 L265.44 490.10 L262.91 491.92 L261.70 492.88 L260.52 493.87 L259.37 494.90 L258.27 495.95 L257.20 497.02 L256.17 498.13 L255.19 499.27 L254.20 500.50 L253.27 501.77 L252.41 503.06 L251.61 504.39 L250.87 505.75 L250.21 507.13 L249.61 508.53 L249.08 509.95 L248.62 511.38 L248.20 512.90 L247.84 514.44 L247.56 515.92 L247.33 517.41 L247.16 518.92 L247.03 520.45 L246.94 521.99 L246.89 525.13 L246.99 528.18 L247.23 531.28 L247.59 534.36 L248.08 537.38 L248.70 540.44 L249.46 543.52 L250.33 546.42 L251.34 549.30 L252.49 552.17 L253.78 554.99 L255.21 557.78 L255.98 559.16 L257.63 561.89 L259.31 564.41 L261.13 566.88 L263.07 569.30 L265.14 571.66 L267.34 573.96 L269.58 576.13 L271.85 578.15 L274.22 580.10 L275.43 581.05 L277.90 582.86 L280.44 584.58 L281.74 585.42 L283.07 586.23 L285.78 587.78 L288.56 589.25 L289.98 589.95 L291.41 590.62 L294.33 591.88 L297.30 593.07 L298.80 593.63 L300.32 594.16 L303.28 595.12 L306.18 595.96 L309.13 596.72 L313.61 597.75 L316.65 598.35 L319.72 598.88 L322.83 599.34 L325.98 599.73 L330.76 600.17 L335.60 600.43 L340.13 600.50 L344.71 600.42 L352.45 600.11 L355.58 600.02 L360.33 600.00 L363.51 600.07 L368.28 600.33 L373.01 600.76 L377.68 601.37 L380.76 601.89 L383.81 602.49 L385.32 602.82 L386.82 603.17 L389.79 603.95 L392.72 604.81 L394.17 605.27 L395.61 605.75 L398.44 606.78 L401.34 607.95 L402.82 608.59 L404.28 609.25 L407.16 610.65 L409.97 612.15 L411.35 612.93 L414.05 614.54 L415.37 615.39 L416.67 616.25 L419.22 618.04 L421.69 619.89 L422.90 620.84 L424.08 621.81 L426.40 623.79 L428.63 625.84 L429.70 626.89 L430.83 628.05 L433.01 630.41 L435.09 632.84 L436.10 634.08 L438.03 636.63 L438.96 637.94 L440.77 640.62 L442.36 643.18 L443.14 644.48 L444.63 647.13 L446.06 649.85 L448.07 654.03 L449.33 656.88 L451.11 661.26 L454.98 671.71 L456.64 675.95 L458.44 680.17 L459.71 682.95 L461.05 685.76 L463.18 689.94 L465.45 693.98 L467.08 696.66 L467.91 697.96 L469.66 700.55 L470.58 701.83 L471.51 703.09 L473.38 705.48 L475.40 707.89 L476.42 709.03 L478.53 711.26 L479.62 712.35 L481.87 714.43 L484.21 716.39 L485.45 717.35 L486.71 718.25 L487.98 719.10 L489.26 719.91 L490.57 720.66 L491.97 721.40 L493.38 722.08 L494.81 722.71 L496.25 723.27 L497.70 723.78 L499.16 724.24 L500.62 724.63 L502.09 724.96 L503.64 725.25 L505.18 725.47 L506.72 725.62 L508.26 725.71 L509.80 725.74 L511.34 725.70 L512.88 725.60 L514.42 725.44 L515.98 725.22 L517.48 724.96 L518.99 724.65 L521.95 723.89 L524.87 722.97 L526.34 722.43 L529.19 721.25 L531.96 719.91 L533.34 719.17 L534.71 718.38 L537.28 716.76 L539.80 714.97 L541.05 714.02 L543.44 712.06 L545.71 710.01 L546.83 708.94 L547.94 707.84 L550.11 705.54 L552.10 703.28 L554.05 700.92 L555.95 698.47 L557.79 695.91 L559.56 693.27 L561.15 690.70 L562.66 688.05 L564.08 685.34 L566.09 681.19 L567.37 678.36 L568.56 675.45 L569.70 672.48 L570.80 669.46 L572.26 665.17 L573.63 660.78 L574.48 657.79 L575.68 653.24 L577.20 647.03 L578.64 640.95 L579.98 634.99 L580.94 630.45 L581.87 625.84 L582.75 621.17 L583.88 614.84 L585.22 606.85 L586.47 599.04 L587.38 593.03 L588.24 586.95 L589.05 580.79 L590.00 572.98 L590.89 565.07 L591.73 557.04 L593.68 536.73 L597.11 499.39 L601.93 449.25 L603.42 432.62 L605.28 411.07 L607.34 385.96 L609.21 361.96 L613.12 309.39 L615.62 276.43 L616.27 267.33 L616.87 258.19 L617.43 249.00 L618.10 236.72 L619.66 205.87 L621.29 169.91 L623.79 109.36 L624.43 94.81 L629.60 -9.15 L631.25 -45.82 L632.07 -62.96 L635.04 -119.98 L635.32 -126.19 L635.50 -132.45 L635.52 -135.51 L635.48 -138.71 L635.28 -143.33 L635.04 -146.50 L634.73 -149.56 L634.34 -152.61 L633.89 -155.63 L633.33 -158.69 L633.02 -160.17 L632.30 -163.19 L631.89 -164.64 L630.95 -167.58 L630.40 -169.05 L629.82 -170.48 L629.20 -171.85 L628.52 -173.25 L627.78 -174.59 L627.01 -175.89 L626.15 -177.21 L625.24 -178.47 L624.27 -179.67 L623.26 -180.82 L622.19 -181.91 L621.08 -182.93 L619.87 -183.93 L618.62 -184.85 L617.33 -185.69 L616.01 -186.45 L614.65 -187.13 L613.27 -187.73 L611.86 -188.25 L610.43 -188.71 L608.96 -189.09 L607.47 -189.40 L605.95 -189.65 L604.41 -189.83 L602.85 -189.94 L601.34 -189.99 L599.83 -189.99 L598.30 -189.92 L596.76 -189.80 L595.22 -189.61 L593.69 -189.36 L592.17 -189.05 L590.66 -188.67 L589.18 -188.23 L587.71 -187.73 L586.25 -187.17 L584.83 -186.54 L583.43 -185.86 L582.06 -185.13 L580.72 -184.35 L579.43 -183.52 L578.17 -182.64 L576.95 -181.71 L575.77 -180.72 L574.62 -179.67 L573.50 -178.58 L572.46 -177.49 L571.46 -176.35 L570.48 -175.17 L569.54 -173.93 L568.63 -172.66 L567.80 -171.40 L567.00 -170.11 L566.24 -168.79 L565.52 -167.42 L564.83 -166.03 L564.18 -164.59 L563.60 -163.21 L563.06 -161.79 L562.55 -160.35 L562.09 -158.88 L561.66 -157.39 L560.93 -154.35 L560.38 -151.38 L559.98 -148.34 L559.85 -146.79 L559.69 -143.65 L559.69 -140.63 L559.84 -137.57 L560.12 -134.47 L560.54 -131.35 L561.08 -128.38 L561.74 -125.38 L562.54 -122.36 L563.47 -119.33 L564.48 -116.48 L565.59 -113.63 L566.83 -110.79 L568.18 -107.96 L569.63 -105.12 L573.28 -98.52 L574.70 -95.82 L575.38 -94.45 L576.68 -91.65 L577.93 -88.80 L579.08 -85.88 L579.62 -84.39 L580.64 -81.37 L581.56 -78.30 L582.36 -75.29 L583.03 -72.34 L583.58 -69.35 L584.01 -66.32 L584.33 -63.25 L584.58 -60.16 L584.74 -57.04 L584.82 -52.32 L584.70 -47.55 L584.40 -42.74 L584.26 -41.13 L583.91 -38.03 L583.26 -33.55 L582.44 -29.05 L581.21 -22.99 L580.35 -18.37 L579.62 -13.69 L579.22 -10.53 L578.88 -7.35 L578.60 -4.14 L578.29 0.70 L578.12 5.54 L578.08 8.79 L578.09 12.05 L578.22 18.08 L578.49 24.16 L578.97 31.83 L579.65 41.16 L580.74 53.79 L583.50 82.45 L584.33 91.55 L585.50 105.40 L586.47 117.92 L587.01 125.84 L587.48 133.83 L587.88 141.90 L588.37 153.31 L588.71 163.16 L588.88 171.39 L588.92 181.34 L588.81 190.37 L588.51 200.90 L587.94 214.40 L587.37 225.06 L587.00 229.83 L586.70 233.13 Z" fill="none" stroke="#f2ede4" stroke-width="6" stroke-linecap="round" stroke-linejoin="round"/>
</svg>
